<mxfile host="app.diagrams.net" agent="Mozilla/5.0 (Windows NT 10.0; Win64; x64) AppleWebKit/537.36 (KHTML, like Gecko) Chrome/130.0.0.0 Safari/537.36" version="24.8.6">
  <diagram name="Trang-1" id="g_3SvU8xWKTeTy-fwoyv">
    <mxGraphModel grid="1" page="1" gridSize="10" guides="1" tooltips="1" connect="1" arrows="1" fold="1" pageScale="1" pageWidth="827" pageHeight="1169" math="0" shadow="0">
      <root>
        <mxCell id="0" />
        <mxCell id="1" parent="0" />
        <mxCell id="y1vxPBax_a5ZMWB7k7fh-3" value="" style="edgeStyle=orthogonalEdgeStyle;rounded=0;orthogonalLoop=1;jettySize=auto;html=1;" edge="1" parent="1" source="y1vxPBax_a5ZMWB7k7fh-1" target="y1vxPBax_a5ZMWB7k7fh-2">
          <mxGeometry relative="1" as="geometry" />
        </mxCell>
        <mxCell id="y1vxPBax_a5ZMWB7k7fh-1" value="&lt;font style=&quot;vertical-align: inherit;&quot;&gt;&lt;font style=&quot;vertical-align: inherit;&quot;&gt;Bắt đầu&lt;/font&gt;&lt;/font&gt;" style="ellipse;whiteSpace=wrap;html=1;" vertex="1" parent="1">
          <mxGeometry x="354" y="50" width="120" height="80" as="geometry" />
        </mxCell>
        <mxCell id="y1vxPBax_a5ZMWB7k7fh-5" value="" style="edgeStyle=orthogonalEdgeStyle;rounded=0;orthogonalLoop=1;jettySize=auto;html=1;" edge="1" parent="1" source="y1vxPBax_a5ZMWB7k7fh-2">
          <mxGeometry relative="1" as="geometry">
            <mxPoint x="414" y="280" as="targetPoint" />
          </mxGeometry>
        </mxCell>
        <mxCell id="y1vxPBax_a5ZMWB7k7fh-2" value="&lt;font style=&quot;vertical-align: inherit;&quot;&gt;&lt;font style=&quot;vertical-align: inherit;&quot;&gt;Nhập điểm số n&lt;/font&gt;&lt;/font&gt;" style="shape=parallelogram;perimeter=parallelogramPerimeter;whiteSpace=wrap;html=1;fixedSize=1;" vertex="1" parent="1">
          <mxGeometry x="354" y="170" width="120" height="60" as="geometry" />
        </mxCell>
        <mxCell id="y1vxPBax_a5ZMWB7k7fh-8" value="" style="edgeStyle=orthogonalEdgeStyle;rounded=0;orthogonalLoop=1;jettySize=auto;html=1;" edge="1" parent="1" source="y1vxPBax_a5ZMWB7k7fh-6" target="y1vxPBax_a5ZMWB7k7fh-7">
          <mxGeometry relative="1" as="geometry" />
        </mxCell>
        <mxCell id="y1vxPBax_a5ZMWB7k7fh-9" value="Đúng" style="edgeStyle=orthogonalEdgeStyle;rounded=0;orthogonalLoop=1;jettySize=auto;html=1;" edge="1" parent="1" source="y1vxPBax_a5ZMWB7k7fh-6" target="y1vxPBax_a5ZMWB7k7fh-7">
          <mxGeometry relative="1" as="geometry" />
        </mxCell>
        <mxCell id="y1vxPBax_a5ZMWB7k7fh-11" value="Sai" style="edgeStyle=orthogonalEdgeStyle;rounded=0;orthogonalLoop=1;jettySize=auto;html=1;entryX=0.5;entryY=0;entryDx=0;entryDy=0;" edge="1" parent="1" source="y1vxPBax_a5ZMWB7k7fh-6" target="y1vxPBax_a5ZMWB7k7fh-10">
          <mxGeometry relative="1" as="geometry" />
        </mxCell>
        <mxCell id="y1vxPBax_a5ZMWB7k7fh-6" value="&#xa;&lt;span style=&quot;color: rgb(0, 0, 0); font-family: Helvetica; font-size: 12px; font-style: normal; font-variant-ligatures: normal; font-variant-caps: normal; font-weight: 400; letter-spacing: normal; orphans: 2; text-align: center; text-indent: 0px; text-transform: none; widows: 2; word-spacing: 0px; -webkit-text-stroke-width: 0px; white-space: normal; background-color: rgb(251, 251, 251); text-decoration-thickness: initial; text-decoration-style: initial; text-decoration-color: initial; display: inline !important; float: none;&quot;&gt;Kiểm tra n &amp;gt;= 5&lt;/span&gt;&#xa;&#xa;" style="rounded=0;whiteSpace=wrap;html=1;" vertex="1" parent="1">
          <mxGeometry x="354" y="280" width="120" height="60" as="geometry" />
        </mxCell>
        <mxCell id="y1vxPBax_a5ZMWB7k7fh-13" value="" style="edgeStyle=orthogonalEdgeStyle;rounded=0;orthogonalLoop=1;jettySize=auto;html=1;" edge="1" parent="1" source="y1vxPBax_a5ZMWB7k7fh-7" target="y1vxPBax_a5ZMWB7k7fh-12">
          <mxGeometry relative="1" as="geometry" />
        </mxCell>
        <mxCell id="y1vxPBax_a5ZMWB7k7fh-7" value="Đạt" style="rhombus;whiteSpace=wrap;html=1;rounded=0;" vertex="1" parent="1">
          <mxGeometry x="320" y="420" width="80" height="80" as="geometry" />
        </mxCell>
        <mxCell id="y1vxPBax_a5ZMWB7k7fh-14" value="" style="edgeStyle=orthogonalEdgeStyle;rounded=0;orthogonalLoop=1;jettySize=auto;html=1;" edge="1" parent="1" source="y1vxPBax_a5ZMWB7k7fh-10" target="y1vxPBax_a5ZMWB7k7fh-12">
          <mxGeometry relative="1" as="geometry" />
        </mxCell>
        <mxCell id="y1vxPBax_a5ZMWB7k7fh-10" value="Không đạt" style="rhombus;whiteSpace=wrap;html=1;" vertex="1" parent="1">
          <mxGeometry x="430" y="420" width="80" height="80" as="geometry" />
        </mxCell>
        <mxCell id="y1vxPBax_a5ZMWB7k7fh-16" value="" style="edgeStyle=orthogonalEdgeStyle;rounded=0;orthogonalLoop=1;jettySize=auto;html=1;" edge="1" parent="1" source="y1vxPBax_a5ZMWB7k7fh-12" target="y1vxPBax_a5ZMWB7k7fh-15">
          <mxGeometry relative="1" as="geometry" />
        </mxCell>
        <mxCell id="y1vxPBax_a5ZMWB7k7fh-12" value="In ra kết quả" style="shape=parallelogram;perimeter=parallelogramPerimeter;whiteSpace=wrap;html=1;fixedSize=1;" vertex="1" parent="1">
          <mxGeometry x="354" y="550" width="120" height="60" as="geometry" />
        </mxCell>
        <mxCell id="y1vxPBax_a5ZMWB7k7fh-15" value="Kết thúc" style="ellipse;whiteSpace=wrap;html=1;" vertex="1" parent="1">
          <mxGeometry x="354" y="650" width="120" height="80" as="geometry" />
        </mxCell>
      </root>
    </mxGraphModel>
  </diagram>
</mxfile>
